<?xml version="1.0" encoding="utf-8"?>
<!-- Original ILIAS 10 Delos icon, recolored for eFormarine. -->
<svg version="1.1" id="Layer_1" xmlns="http://www.w3.org/2000/svg" xmlns:xlink="http://www.w3.org/1999/xlink" x="0px" y="0px"
	 viewBox="0 0 320 320" style="enable-background:new 0 0 320 320;" xml:space="preserve">
<style type="text/css">
	.efm-blue{fill:#003a70;}
	.efm-red{fill:#e30613;}
</style>
<g>
	<g>
		<defs>
			<rect id="SVGID_1_" width="320" height="320"/>
		</defs>
		<clipPath id="SVGID_00000042708637788135052020000013814496295012429247_">
			<use xlink:href="#SVGID_1_"  style="overflow:visible;"/>
		</clipPath>
		<path style="clip-path:url(#SVGID_00000042708637788135052020000013814496295012429247_);fill:#003a70;" d="M175,70
			c0-2.8-2.2-5-5-5H90c-2.8,0-5,2.2-5,5v40c0,2.8,2.2,5,5,5h80c2.8,0,5-2.2,5-5V70z"/>
	</g>
	<g>
		<defs>
			<rect id="SVGID_00000142178103598514229390000006414373630046091703_" width="320" height="320"/>
		</defs>
		<clipPath id="SVGID_00000029023057412592362150000006205686597960773800_">
			<use xlink:href="#SVGID_00000142178103598514229390000006414373630046091703_"  style="overflow:visible;"/>
		</clipPath>
		<path style="clip-path:url(#SVGID_00000029023057412592362150000006205686597960773800_);fill:#e30613;" d="M275,140
			c0-2.8-2.2-5-5-5H90c-2.8,0-5,2.2-5,5v40c0,2.8,2.2,5,5,5h180c2.8,0,5-2.2,5-5V140z"/>
	</g>
	<g>
		<defs>
			<rect id="SVGID_00000143606480255601224550000007957154042001566135_" width="320" height="320"/>
		</defs>
		<clipPath id="SVGID_00000039828259910456657930000011762135554170170272_">
			<use xlink:href="#SVGID_00000143606480255601224550000007957154042001566135_"  style="overflow:visible;"/>
		</clipPath>
		<path style="clip-path:url(#SVGID_00000039828259910456657930000011762135554170170272_);fill:#003a70;" d="M235,210
			c0-2.8-2.2-5-5-5H90c-2.8,0-5,2.2-5,5v40c0,2.8,2.2,5,5,5h140c2.8,0,5-2.2,5-5V210z"/>
	</g>
	<g>
		<defs>
			<rect id="SVGID_00000161632803321311030090000006458620968468855980_" width="320" height="320"/>
		</defs>
		<clipPath id="SVGID_00000112631800002446809220000006690687737074967441_">
			<use xlink:href="#SVGID_00000161632803321311030090000006458620968468855980_"  style="overflow:visible;"/>
		</clipPath>
		<path style="clip-path:url(#SVGID_00000112631800002446809220000006690687737074967441_);fill:#003a70;" d="M65,45
			c0-2.8-2.2-5-5-5H50c-2.8,0-5,2.2-5,5v230c0,2.8,2.2,5,5,5h10c2.8,0,5-2.2,5-5V45z"/>
	</g>
</g>
</svg>
